<svg width="43" height="43" viewBox="0 0 43 43" fill="none" xmlns="http://www.w3.org/2000/svg">
<path d="M38.2969 21.5C38.2969 18.178 37.3118 14.9305 35.4662 12.1684C33.6206 9.40616 30.9974 7.25327 27.9283 5.9819C24.8592 4.71053 21.482 4.37778 18.2238 5.02574C14.9656 5.67371 11.9726 7.27327 9.62348 9.62217C7.27433 11.9711 5.67443 14.9638 5.02611 18.222C4.37779 21.4801 4.71016 24.8574 5.9812 27.9266C7.25223 30.9959 9.40484 33.6193 12.1668 35.4652C14.9288 37.3111 18.1761 38.2965 21.4982 38.2969L21.5 38.2971L21.5019 38.2969C25.9548 38.2914 30.2238 36.5199 33.3723 33.371C36.5208 30.2221 38.2919 25.953 38.2969 21.5ZM22.1719 36.9377V24.8594H26.875C27.0532 24.8594 27.2241 24.7886 27.3501 24.6626C27.4761 24.5366 27.5469 24.3657 27.5469 24.1875C27.5469 24.0093 27.4761 23.8384 27.3501 23.7124C27.2241 23.5864 27.0532 23.5156 26.875 23.5156H22.1719V18.8125C22.1729 17.9218 22.5271 17.0679 23.1569 16.4382C23.7867 15.8084 24.6406 15.4541 25.5313 15.4531H28.2188C28.397 15.4531 28.5679 15.3823 28.6939 15.2563C28.8199 15.1303 28.8906 14.9594 28.8906 14.7813C28.8906 14.6031 28.8199 14.4322 28.6939 14.3062C28.5679 14.1802 28.397 14.1094 28.2188 14.1094H25.5313C24.2843 14.1108 23.0889 14.6067 22.2072 15.4884C21.3255 16.3701 20.8295 17.5656 20.8281 18.8125V23.5156H16.125C15.9468 23.5156 15.7759 23.5864 15.6499 23.7124C15.5239 23.8384 15.4531 24.0093 15.4531 24.1875C15.4531 24.3657 15.5239 24.5366 15.6499 24.6626C15.7759 24.7886 15.9468 24.8594 16.125 24.8594H20.8281V36.9375C16.7917 36.7618 12.9846 35.0124 10.2225 32.0638C7.46027 29.1153 5.96269 25.2023 6.05054 21.163C6.1384 17.1237 7.80469 13.2795 10.6925 10.4538C13.5802 7.62818 17.4598 6.04587 21.5 6.04587C25.5402 6.04587 29.4198 7.62818 32.3076 10.4538C35.1953 13.2795 36.8616 17.1237 36.9495 21.163C37.0373 25.2023 35.5398 29.1153 32.7776 32.0638C30.0154 35.0124 26.2083 36.7618 22.1719 36.9375V36.9377Z" fill="black"/>
</svg>
