<svg width="7" height="7" viewBox="0 0 7 7" fill="none" xmlns="http://www.w3.org/2000/svg">
<path d="M3.74106 0.366045C3.74106 0.280797 3.77493 0.19904 3.83521 0.138761C3.89549 0.0784814 3.97724 0.0446167 4.06249 0.0446167H6.63392C6.71917 0.0446167 6.80092 0.0784814 6.8612 0.138761C6.92148 0.19904 6.95535 0.280797 6.95535 0.366045V2.93747C6.95535 3.02272 6.92148 3.10448 6.8612 3.16476C6.80092 3.22504 6.71917 3.2589 6.63392 3.2589C6.54867 3.2589 6.46691 3.22504 6.40663 3.16476C6.34635 3.10448 6.31249 3.02272 6.31249 2.93747V1.14197L3.40581 4.04865C3.34519 4.1072 3.264 4.1396 3.17972 4.13887C3.09544 4.13813 3.01482 4.10433 2.95523 4.04474C2.89563 3.98514 2.86183 3.90452 2.8611 3.82024C2.86036 3.73597 2.89276 3.65477 2.95131 3.59415L5.85799 0.687474H4.06249C3.97724 0.687474 3.89549 0.653609 3.83521 0.593329C3.77493 0.53305 3.74106 0.451293 3.74106 0.366045Z" fill="#0066FF"/>
<path d="M1.97322 1.25034C1.71747 1.25034 1.4722 1.35193 1.29136 1.53277C1.11052 1.71361 1.00893 1.95888 1.00893 2.21463V5.10748C1.00893 5.36323 1.11052 5.6085 1.29136 5.78934C1.4722 5.97017 1.71747 6.07177 1.97322 6.07177H4.78572C5.04146 6.07177 5.28673 5.97017 5.46757 5.78934C5.64841 5.6085 5.75 5.36323 5.75 5.10748V4.1432C5.75 4.05795 5.78387 3.97619 5.84415 3.91591C5.90443 3.85563 5.98618 3.82177 6.07143 3.82177C6.15668 3.82177 6.23844 3.85563 6.29872 3.91591C6.359 3.97619 6.39286 4.05795 6.39286 4.1432V5.10748C6.39286 5.31854 6.35129 5.52752 6.27052 5.72251C6.18976 5.9175 6.07138 6.09467 5.92214 6.2439C5.7729 6.39314 5.59573 6.51152 5.40074 6.59229C5.20576 6.67306 4.99677 6.71463 4.78572 6.71463H1.97322C1.54698 6.71463 1.13819 6.5453 0.836795 6.2439C0.535397 5.94251 0.366074 5.53372 0.366074 5.10748V2.21463C0.366074 1.78838 0.535397 1.3796 0.836795 1.0782C1.13819 0.776806 1.54698 0.607483 1.97322 0.607483H2.85715C2.94239 0.607483 3.02415 0.641348 3.08443 0.701627C3.14471 0.761907 3.17857 0.843663 3.17857 0.928911C3.17857 1.01416 3.14471 1.09592 3.08443 1.1562C3.02415 1.21648 2.94239 1.25034 2.85715 1.25034H1.97322Z" fill="#0066FF"/>
</svg>
