<svg width="156" height="53" viewBox="0 0 156 53" fill="none" xmlns="http://www.w3.org/2000/svg">
<rect x="0.75" y="0.75" width="154.5" height="51.5" rx="6.25" stroke="black" stroke-width="1.5"/>
<path d="M64.862 29.6C64.862 30.452 64.736 31.226 64.484 31.922C64.232 32.606 63.878 33.188 63.422 33.668C62.966 34.148 62.408 34.52 61.748 34.784C61.088 35.048 60.356 35.18 59.552 35.18C57.944 35.18 56.66 34.682 55.7 33.686C54.74 32.678 54.26 31.316 54.26 29.6V22.4H56.42V29.6C56.42 30.704 56.708 31.586 57.284 32.246C57.86 32.906 58.622 33.236 59.57 33.236C60.518 33.236 61.274 32.906 61.838 32.246C62.414 31.586 62.702 30.704 62.702 29.6V22.4H64.862V29.6ZM66.6512 33.956L67.6052 32.588C68.1932 32.96 68.7092 33.224 69.1532 33.38C69.5972 33.536 70.0472 33.614 70.5032 33.614C71.0432 33.614 71.4812 33.506 71.8172 33.29C72.1532 33.062 72.3212 32.768 72.3212 32.408C72.3212 32.132 72.2192 31.916 72.0152 31.76C71.8232 31.592 71.5112 31.466 71.0792 31.382L69.4772 31.112C68.6132 30.956 67.9592 30.674 67.5152 30.266C67.0832 29.846 66.8672 29.3 66.8672 28.628C66.8672 27.788 67.1852 27.116 67.8212 26.612C68.4692 26.096 69.3152 25.838 70.3592 25.838C70.9832 25.838 71.5832 25.928 72.1592 26.108C72.7472 26.276 73.3292 26.546 73.9052 26.918L72.9512 28.25C72.4832 27.95 72.0272 27.734 71.5832 27.602C71.1392 27.458 70.6892 27.386 70.2332 27.386C69.7652 27.386 69.3872 27.482 69.0992 27.674C68.8232 27.854 68.6852 28.112 68.6852 28.448C68.6852 28.736 68.7752 28.952 68.9552 29.096C69.1472 29.24 69.4832 29.354 69.9632 29.438L71.5472 29.726C72.4472 29.894 73.1132 30.188 73.5452 30.608C73.9892 31.028 74.2112 31.574 74.2112 32.246C74.2112 32.654 74.1152 33.038 73.9232 33.398C73.7432 33.758 73.4852 34.07 73.1492 34.334C72.8252 34.598 72.4352 34.808 71.9792 34.964C71.5352 35.108 71.0552 35.18 70.5392 35.18C69.7592 35.18 69.0332 35.078 68.3612 34.874C67.7012 34.658 67.1312 34.352 66.6512 33.956ZM83.9203 33.848C83.3683 34.304 82.8043 34.64 82.2283 34.856C81.6643 35.072 81.0343 35.18 80.3383 35.18C79.7023 35.18 79.1023 35.06 78.5383 34.82C77.9743 34.58 77.4883 34.25 77.0803 33.83C76.6723 33.41 76.3483 32.912 76.1083 32.336C75.8683 31.76 75.7483 31.148 75.7483 30.5C75.7483 29.84 75.8563 29.228 76.0723 28.664C76.3003 28.088 76.6063 27.596 76.9903 27.188C77.3863 26.768 77.8543 26.438 78.3943 26.198C78.9343 25.958 79.5163 25.838 80.1403 25.838C80.7523 25.838 81.3163 25.958 81.8323 26.198C82.3603 26.426 82.8103 26.744 83.1823 27.152C83.5663 27.56 83.8663 28.052 84.0823 28.628C84.2983 29.192 84.4063 29.81 84.4063 30.482V30.986H77.7463C77.8423 31.694 78.1423 32.282 78.6463 32.75C79.1623 33.218 79.7623 33.452 80.4463 33.452C80.8663 33.452 81.2623 33.38 81.6343 33.236C82.0183 33.08 82.3363 32.87 82.5883 32.606L83.9203 33.848ZM80.1223 27.494C79.5223 27.494 79.0123 27.698 78.5923 28.106C78.1723 28.514 77.9023 29.06 77.7823 29.744H82.4803C82.3603 29.084 82.0843 28.544 81.6523 28.124C81.2323 27.704 80.7223 27.494 80.1223 27.494ZM94.9337 35H92.6837L89.9297 22.4H92.1257L93.9977 31.634L96.6977 22.4H98.7497L101.45 31.634L103.322 22.4H105.446L102.692 35H100.442L97.6877 25.442L94.9337 35ZM114.401 33.848C113.849 34.304 113.285 34.64 112.709 34.856C112.145 35.072 111.515 35.18 110.819 35.18C110.183 35.18 109.583 35.06 109.019 34.82C108.455 34.58 107.969 34.25 107.561 33.83C107.153 33.41 106.829 32.912 106.589 32.336C106.349 31.76 106.229 31.148 106.229 30.5C106.229 29.84 106.337 29.228 106.553 28.664C106.781 28.088 107.087 27.596 107.471 27.188C107.867 26.768 108.335 26.438 108.875 26.198C109.415 25.958 109.997 25.838 110.621 25.838C111.233 25.838 111.797 25.958 112.313 26.198C112.841 26.426 113.291 26.744 113.663 27.152C114.047 27.56 114.347 28.052 114.563 28.628C114.779 29.192 114.887 29.81 114.887 30.482V30.986H108.227C108.323 31.694 108.623 32.282 109.127 32.75C109.643 33.218 110.243 33.452 110.927 33.452C111.347 33.452 111.743 33.38 112.115 33.236C112.499 33.08 112.817 32.87 113.069 32.606L114.401 33.848ZM110.603 27.494C110.003 27.494 109.493 27.698 109.073 28.106C108.653 28.514 108.383 29.06 108.263 29.744H112.961C112.841 29.084 112.565 28.544 112.133 28.124C111.713 27.704 111.203 27.494 110.603 27.494ZM125.853 30.5C125.853 31.136 125.745 31.736 125.529 32.3C125.313 32.864 125.013 33.35 124.629 33.758C124.245 34.166 123.795 34.49 123.279 34.73C122.763 34.97 122.211 35.09 121.623 35.09C121.095 35.09 120.597 34.982 120.129 34.766C119.673 34.55 119.283 34.238 118.959 33.83V35H116.961V22.13L118.995 21.788V27.188C119.307 26.792 119.703 26.48 120.183 26.252C120.675 26.024 121.203 25.91 121.767 25.91C122.331 25.91 122.865 26.03 123.369 26.27C123.873 26.51 124.305 26.84 124.665 27.26C125.037 27.668 125.325 28.154 125.529 28.718C125.745 29.27 125.853 29.864 125.853 30.5ZM121.155 27.62C120.711 27.62 120.303 27.704 119.931 27.872C119.571 28.04 119.259 28.292 118.995 28.628V32.39C119.259 32.702 119.577 32.948 119.949 33.128C120.321 33.296 120.723 33.38 121.155 33.38C121.923 33.38 122.559 33.11 123.063 32.57C123.579 32.018 123.837 31.328 123.837 30.5C123.837 29.684 123.579 29 123.063 28.448C122.547 27.896 121.911 27.62 121.155 27.62Z" fill="black"/>
<path d="M53.468 13.8H55.544C55.748 13.8 55.936 13.83 56.108 13.89C56.28 13.946 56.426 14.024 56.546 14.124C56.67 14.224 56.766 14.346 56.834 14.49C56.906 14.63 56.942 14.782 56.942 14.946C56.942 15.142 56.886 15.32 56.774 15.48C56.662 15.636 56.514 15.762 56.33 15.858C56.546 15.946 56.722 16.076 56.858 16.248C56.994 16.416 57.062 16.608 57.062 16.824C57.062 16.996 57.026 17.154 56.954 17.298C56.886 17.442 56.788 17.566 56.66 17.67C56.536 17.774 56.386 17.856 56.21 17.916C56.038 17.972 55.848 18 55.64 18H53.468V13.8ZM55.424 14.622H54.5V15.486H55.424C55.568 15.486 55.684 15.446 55.772 15.366C55.86 15.286 55.904 15.182 55.904 15.054C55.904 14.922 55.86 14.818 55.772 14.742C55.688 14.662 55.572 14.622 55.424 14.622ZM55.508 17.178C55.664 17.178 55.788 17.136 55.88 17.052C55.972 16.968 56.018 16.856 56.018 16.716C56.018 16.576 55.972 16.464 55.88 16.38C55.788 16.296 55.664 16.254 55.508 16.254H54.5V17.178H55.508ZM58.4391 13.8H60.5151C60.7191 13.8 60.9071 13.83 61.0791 13.89C61.2511 13.946 61.3971 14.024 61.5171 14.124C61.6411 14.224 61.7371 14.346 61.8051 14.49C61.8771 14.63 61.9131 14.782 61.9131 14.946C61.9131 15.142 61.8571 15.32 61.7451 15.48C61.6331 15.636 61.4851 15.762 61.3011 15.858C61.5171 15.946 61.6931 16.076 61.8291 16.248C61.9651 16.416 62.0331 16.608 62.0331 16.824C62.0331 16.996 61.9971 17.154 61.9251 17.298C61.8571 17.442 61.7591 17.566 61.6311 17.67C61.5071 17.774 61.3571 17.856 61.1811 17.916C61.0091 17.972 60.8191 18 60.6111 18H58.4391V13.8ZM60.3951 14.622H59.4711V15.486H60.3951C60.5391 15.486 60.6551 15.446 60.7431 15.366C60.8311 15.286 60.8751 15.182 60.8751 15.054C60.8751 14.922 60.8311 14.818 60.7431 14.742C60.6591 14.662 60.5431 14.622 60.3951 14.622ZM60.4791 17.178C60.6351 17.178 60.7591 17.136 60.8511 17.052C60.9431 16.968 60.9891 16.856 60.9891 16.716C60.9891 16.576 60.9431 16.464 60.8511 16.38C60.7591 16.296 60.6351 16.254 60.4791 16.254H59.4711V17.178H60.4791ZM66.1162 17.562C65.9162 17.738 65.7142 17.866 65.5102 17.946C65.3062 18.022 65.0742 18.06 64.8142 18.06C64.5862 18.06 64.3722 18.02 64.1722 17.94C63.9762 17.856 63.8042 17.742 63.6562 17.598C63.5082 17.454 63.3922 17.284 63.3082 17.088C63.2242 16.892 63.1822 16.682 63.1822 16.458C63.1822 16.23 63.2222 16.018 63.3022 15.822C63.3822 15.626 63.4902 15.456 63.6262 15.312C63.7662 15.168 63.9322 15.056 64.1242 14.976C64.3162 14.892 64.5222 14.85 64.7422 14.85C64.9662 14.85 65.1702 14.892 65.3542 14.976C65.5422 15.056 65.7022 15.168 65.8342 15.312C65.9702 15.456 66.0762 15.63 66.1522 15.834C66.2282 16.034 66.2662 16.254 66.2662 16.494V16.704H64.1362C64.1802 16.876 64.2682 17.016 64.4002 17.124C64.5322 17.232 64.6862 17.286 64.8622 17.286C64.9902 17.286 65.1062 17.264 65.2102 17.22C65.3182 17.176 65.4062 17.112 65.4742 17.028L66.1162 17.562ZM64.7362 15.606C64.5842 15.606 64.4562 15.654 64.3522 15.75C64.2482 15.846 64.1762 15.98 64.1362 16.152H65.3662C65.3262 15.984 65.2502 15.852 65.1382 15.756C65.0262 15.656 64.8922 15.606 64.7362 15.606ZM73.59 15.9C73.59 16.2 73.534 16.484 73.422 16.752C73.31 17.016 73.156 17.246 72.96 17.442C72.768 17.634 72.54 17.786 72.276 17.898C72.012 18.01 71.728 18.066 71.424 18.066C71.12 18.066 70.834 18.01 70.566 17.898C70.302 17.786 70.072 17.634 69.876 17.442C69.684 17.246 69.532 17.016 69.42 16.752C69.308 16.484 69.252 16.2 69.252 15.9C69.252 15.6 69.308 15.318 69.42 15.054C69.532 14.786 69.684 14.556 69.876 14.364C70.072 14.168 70.302 14.014 70.566 13.902C70.834 13.79 71.12 13.734 71.424 13.734C71.728 13.734 72.012 13.79 72.276 13.902C72.54 14.014 72.768 14.168 72.96 14.364C73.156 14.556 73.31 14.786 73.422 15.054C73.534 15.318 73.59 15.6 73.59 15.9ZM72.522 15.9C72.522 15.724 72.494 15.56 72.438 15.408C72.382 15.252 72.304 15.12 72.204 15.012C72.108 14.9 71.992 14.812 71.856 14.748C71.72 14.684 71.574 14.652 71.418 14.652C71.262 14.652 71.116 14.684 70.98 14.748C70.844 14.812 70.726 14.9 70.626 15.012C70.53 15.12 70.454 15.252 70.398 15.408C70.342 15.56 70.314 15.724 70.314 15.9C70.314 16.076 70.342 16.242 70.398 16.398C70.454 16.55 70.53 16.682 70.626 16.794C70.726 16.902 70.844 16.988 70.98 17.052C71.116 17.116 71.262 17.148 71.418 17.148C71.574 17.148 71.72 17.116 71.856 17.052C71.992 16.988 72.108 16.902 72.204 16.794C72.304 16.682 72.382 16.55 72.438 16.398C72.494 16.242 72.522 16.076 72.522 15.9ZM74.9309 13.8H75.9029L77.7689 16.344L77.7509 13.8H78.7229V18H77.8109L75.8849 15.372L75.9029 18H74.9309V13.8ZM83.8885 18H82.7965L81.8605 13.8H82.9225L83.4325 16.404L84.1645 13.8H85.1305L85.8625 16.404L86.3725 13.8H87.3985L86.4625 18H85.3705L84.6325 15.294L83.8885 18ZM88.6489 18V13.8H91.8229V14.664H89.6809V15.462H91.1929V16.302H89.6809V17.136H91.8469V18H88.6489ZM93.2567 13.8H95.3327C95.5367 13.8 95.7247 13.83 95.8967 13.89C96.0687 13.946 96.2147 14.024 96.3347 14.124C96.4587 14.224 96.5547 14.346 96.6227 14.49C96.6947 14.63 96.7307 14.782 96.7307 14.946C96.7307 15.142 96.6747 15.32 96.5627 15.48C96.4507 15.636 96.3027 15.762 96.1187 15.858C96.3347 15.946 96.5107 16.076 96.6467 16.248C96.7827 16.416 96.8507 16.608 96.8507 16.824C96.8507 16.996 96.8147 17.154 96.7427 17.298C96.6747 17.442 96.5767 17.566 96.4487 17.67C96.3247 17.774 96.1747 17.856 95.9987 17.916C95.8267 17.972 95.6367 18 95.4287 18H93.2567V13.8ZM95.2127 14.622H94.2887V15.486H95.2127C95.3567 15.486 95.4727 15.446 95.5607 15.366C95.6487 15.286 95.6927 15.182 95.6927 15.054C95.6927 14.922 95.6487 14.818 95.5607 14.742C95.4767 14.662 95.3607 14.622 95.2127 14.622ZM95.2967 17.178C95.4527 17.178 95.5767 17.136 95.6687 17.052C95.7607 16.968 95.8067 16.856 95.8067 16.716C95.8067 16.576 95.7607 16.464 95.6687 16.38C95.5767 16.296 95.4527 16.254 95.2967 16.254H94.2887V17.178H95.2967Z" fill="black"/>
<path fill-rule="evenodd" clip-rule="evenodd" d="M29.0625 12.125C32.7258 12.125 36.2391 13.5802 38.8294 16.1706C41.4198 18.7609 42.875 22.2742 42.875 25.9375C42.875 29.6008 41.4198 33.1141 38.8294 35.7044C36.2391 38.2948 32.7258 39.75 29.0625 39.75C25.3992 39.75 21.8859 38.2948 19.2956 35.7044C16.7052 33.1141 15.25 29.6008 15.25 25.9375C15.25 22.2742 16.7052 18.7609 19.2956 16.1706C21.8859 13.5802 25.3992 12.125 29.0625 12.125ZM39.4622 20.625C38.0994 17.9751 35.7802 15.9424 32.9746 14.9385C33.9181 16.7235 34.6003 18.636 34.9998 20.625H39.4622ZM40.699 26.9894C40.733 26.6398 40.75 26.2887 40.75 25.9375C40.7479 24.8591 40.5955 23.7863 40.2974 22.75H35.3206C35.3886 23.4534 35.4375 24.161 35.4375 24.875C35.4331 26.3027 35.2865 27.7264 34.9998 29.125H40.2974C40.4992 28.4259 40.6331 27.7119 40.7011 26.9894H40.699ZM33.1871 26.9894L33.1999 26.881C33.2724 26.2148 33.31 25.5452 33.3125 24.875C33.2982 24.1642 33.2443 23.4548 33.151 22.75H24.974C24.8799 23.4547 24.826 24.1642 24.8125 24.875C24.8177 26.3057 24.9838 27.7314 25.3076 29.125H32.8174C32.981 28.4195 33.1042 27.7076 33.1871 26.9894ZM32.7791 20.625C32.2785 18.3775 31.3749 16.2392 30.1123 14.3138C29.7638 14.284 29.4152 14.25 29.0625 14.25C28.8411 14.2511 28.6199 14.2617 28.3995 14.2819L28.0127 14.3138L28 14.335C26.744 16.2549 25.8448 18.3857 25.3459 20.625H32.7791ZM23.1252 20.625C23.5329 18.6374 24.2242 16.7187 25.178 14.9279C22.3602 15.9283 20.0301 17.9658 18.6627 20.625H23.1252ZM17.8276 22.75C17.5299 23.7864 17.3776 24.8592 17.375 25.9375C17.3776 27.0158 17.5299 28.0886 17.8276 29.125H23.1252C22.8372 27.7266 22.6905 26.3028 22.6875 24.875C22.6875 24.161 22.7364 23.4534 22.8044 22.75H17.8276ZM23.6799 31.25H18.6649C19.4682 32.8191 20.615 34.1867 22.0201 35.2511C23.4252 36.3155 25.0523 37.0492 26.7803 37.3976C25.4202 35.5301 24.3731 33.4538 23.6799 31.25ZM29.0625 36.8685C30.4213 35.1879 31.4835 33.2878 32.2032 31.25H25.9218C26.6416 33.2878 27.7037 35.1879 29.0625 36.8685ZM34.4451 31.25C33.7519 33.4538 32.7047 35.5301 31.3448 37.3976C33.0726 37.0489 34.6996 36.3151 36.1046 35.2507C37.5096 34.1864 38.6566 32.8189 39.4601 31.25H34.4451Z" fill="black"/>
</svg>
