<svg width="182" height="54" viewBox="0 0 182 54" fill="none" xmlns="http://www.w3.org/2000/svg">
<path d="M175.259 1.08C178.36 1.08 180.921 3.645 180.921 6.75V47.25C180.921 50.355 178.36 52.92 175.259 52.92H6.74074C3.64 52.92 1.07852 50.355 1.07852 47.25V6.75C1.07852 3.645 3.64 1.08 6.74074 1.08H175.259ZM175.259 0H6.74074C2.96593 0 0 3.105 0 6.75V47.25C0 51.03 2.96593 54 6.74074 54H175.259C179.034 54 182 51.03 182 47.25V6.75C182 3.105 179.034 0 175.259 0Z" fill="#747272"/>
<path d="M64.0412 13.7903C64.0412 14.9516 63.7732 15.9677 63.1031 16.6935C62.299 17.5645 61.3608 18 60.1546 18C58.9485 18 58.0103 17.5645 57.2062 16.6935C56.4021 15.8226 56 14.8065 56 13.5C56 12.1935 56.4021 11.1774 57.2062 10.3065C58.0103 9.43548 58.9485 9 60.1546 9C60.6907 9 61.2268 9.14516 61.7629 9.43548C62.299 9.72581 62.701 10.0161 62.9691 10.4516L62.299 11.1774C61.7629 10.4516 61.0928 10.1613 60.1546 10.1613C59.3505 10.1613 58.5464 10.4516 58.0103 11.1774C57.3402 11.7581 57.0722 12.629 57.0722 13.6452C57.0722 14.6613 57.3402 15.5323 58.0103 16.1129C58.6804 16.6935 59.3505 17.129 60.1546 17.129C61.0928 17.129 61.7629 16.8387 62.433 16.1129C62.8351 15.6774 63.1031 15.0968 63.1031 14.371H60.1546V13.2097H64.0412V13.7903ZM70.2062 10.1613H66.5876V12.9194H69.9381V13.9355H66.5876V16.6935H70.2062V17.8548H65.5155V9.14516H70.2062V10.1613ZM74.6289 17.8548H73.5567V10.1613H71.2783V9.14516H76.9072V10.1613H74.6289V17.8548ZM80.7938 17.8548V9.14516H81.866V17.8548H80.7938ZM86.4227 17.8548H85.3505V10.1613H83.0722V9.14516H88.567V10.1613H86.2887V17.8548H86.4227ZM99.1546 16.6935C98.3505 17.5645 97.4124 18 96.2062 18C95 18 94.0619 17.5645 93.2577 16.6935C92.4536 15.8226 92.0516 14.8065 92.0516 13.5C92.0516 12.1935 92.4536 11.1774 93.2577 10.3065C94.0619 9.43548 95 9 96.2062 9C97.4124 9 98.3505 9.43548 99.1546 10.3065C99.9588 11.1774 100.361 12.1935 100.361 13.5C100.361 14.8065 99.9588 15.8226 99.1546 16.6935ZM94.0619 15.9677C94.5979 16.5484 95.4021 16.9839 96.2062 16.9839C97.0103 16.9839 97.8144 16.6935 98.3505 15.9677C98.8866 15.3871 99.2887 14.5161 99.2887 13.5C99.2887 12.4839 99.0206 11.6129 98.3505 11.0323C97.8144 10.4516 97.0103 10.0161 96.2062 10.0161C95.4021 10.0161 94.5979 10.3065 94.0619 11.0323C93.5258 11.6129 93.1237 12.4839 93.1237 13.5C93.1237 14.5161 93.3918 15.3871 94.0619 15.9677ZM101.835 17.8548V9.14516H103.041L106.928 15.9677V9.14516H108V17.8548H106.928L102.773 10.7419V17.8548H101.835Z" fill="#747272" stroke="#747272" stroke-miterlimit="10"/>
<path d="M91.7021 29.3964C88.4397 29.3964 85.857 31.8462 85.857 35.2485C85.857 38.5148 88.4397 41.1006 91.7021 41.1006C94.9645 41.1006 97.5473 38.6509 97.5473 35.2485C97.5473 31.7101 94.9645 29.3964 91.7021 29.3964ZM91.7021 38.6509C89.935 38.6509 88.4397 37.1538 88.4397 35.1124C88.4397 33.071 89.935 31.574 91.7021 31.574C93.4693 31.574 94.9645 32.9349 94.9645 35.1124C94.9645 37.1538 93.4693 38.6509 91.7021 38.6509ZM79.0603 29.3964C75.7979 29.3964 73.2151 31.8462 73.2151 35.2485C73.2151 38.5148 75.7979 41.1006 79.0603 41.1006C82.3227 41.1006 84.9054 38.6509 84.9054 35.2485C84.9054 31.7101 82.3227 29.3964 79.0603 29.3964ZM79.0603 38.6509C77.2931 38.6509 75.7979 37.1538 75.7979 35.1124C75.7979 33.071 77.2931 31.574 79.0603 31.574C80.8274 31.574 82.3227 32.9349 82.3227 35.1124C82.3227 37.1538 80.8274 38.6509 79.0603 38.6509ZM63.9716 31.1657V33.6154H69.8168C69.6809 34.9763 69.1371 36.0651 68.4574 36.7456C67.6418 37.5621 66.2825 38.5148 63.9716 38.5148C60.3014 38.5148 57.5827 35.6568 57.5827 31.9822C57.5827 28.3077 60.4374 25.4497 63.9716 25.4497C65.8747 25.4497 67.37 26.2663 68.4574 27.2189L70.2246 25.4497C68.7293 24.0888 66.8262 23 64.1076 23C59.2139 23 55 27.0828 55 31.9822C55 36.8817 59.2139 40.9645 64.1076 40.9645C66.8262 40.9645 68.7293 40.1479 70.3605 38.3787C71.9917 36.7456 72.5355 34.432 72.5355 32.6627C72.5355 32.1183 72.5355 31.574 72.3995 31.1657H63.9716ZM125.686 33.071C125.142 31.7101 123.783 29.3964 120.792 29.3964C117.801 29.3964 115.355 31.7101 115.355 35.2485C115.355 38.5148 117.801 41.1006 121.064 41.1006C123.647 41.1006 125.278 39.4675 125.822 38.5148L123.918 37.1538C123.239 38.1065 122.423 38.787 121.064 38.787C119.704 38.787 118.889 38.2426 118.209 37.0178L125.957 33.7515L125.686 33.071ZM117.801 34.9763C117.801 32.7988 119.569 31.574 120.792 31.574C121.743 31.574 122.695 32.1183 122.967 32.7988L117.801 34.9763ZM111.413 40.5562H113.995V23.5444H111.413V40.5562ZM107.335 30.6213C106.655 29.9408 105.567 29.2604 104.208 29.2604C101.353 29.2604 98.6348 31.8462 98.6348 35.1124C98.6348 38.3787 101.217 40.8284 104.208 40.8284C105.567 40.8284 106.655 40.1479 107.199 39.4675H107.335V40.284C107.335 42.4615 106.111 43.6864 104.208 43.6864C102.713 43.6864 101.625 42.5976 101.353 41.645L99.1785 42.5976C99.8582 44.0947 101.489 46 104.344 46C107.335 46 109.781 44.2308 109.781 40.0118V29.6686H107.335V30.6213ZM104.344 38.6509C102.577 38.6509 101.082 37.1538 101.082 35.1124C101.082 33.071 102.577 31.574 104.344 31.574C106.111 31.574 107.47 33.071 107.47 35.1124C107.47 37.1538 106.111 38.6509 104.344 38.6509ZM137.512 23.5444H131.395V40.5562H133.978V34.1598H137.512C140.366 34.1598 143.085 32.1183 143.085 28.8521C143.085 25.5858 140.366 23.5444 137.512 23.5444ZM137.648 31.7101H133.978V25.858H137.648C139.551 25.858 140.638 27.4911 140.638 28.716C140.502 30.213 139.415 31.7101 137.648 31.7101ZM153.28 29.2604C151.377 29.2604 149.474 30.0769 148.794 31.8462L151.105 32.7988C151.649 31.8462 152.465 31.574 153.416 31.574C154.775 31.574 155.999 32.3905 156.135 33.7515V33.8876C155.727 33.6154 154.639 33.2071 153.552 33.2071C151.105 33.2071 148.658 34.568 148.658 37.0178C148.658 39.3314 150.697 40.8284 152.872 40.8284C154.639 40.8284 155.455 40.0118 156.135 39.1953H156.271V40.5562H158.717V34.0237C158.446 31.0296 156.135 29.2604 153.28 29.2604ZM153.008 38.6509C152.193 38.6509 150.969 38.2426 150.969 37.1538C150.969 35.7929 152.465 35.3846 153.688 35.3846C154.775 35.3846 155.319 35.6568 155.999 35.929C155.727 37.5621 154.368 38.6509 153.008 38.6509ZM167.281 29.6686L164.427 37.0178H164.291L161.3 29.6686H158.582L163.067 40.0118L160.485 45.7278H163.067L170 29.6686H167.281ZM144.444 40.5562H147.027V23.5444H144.444V40.5562Z" fill="#747272"/>
<g style="mix-blend-mode:luminosity">
<path d="M14.5231 10C14.1308 10.408 14 11.088 14 11.904V41.96C14 42.776 14.2615 43.456 14.6538 43.864L14.7846 44L31 27.136V26.864L14.5231 10Z" fill="url(#paint0_linear)"/>
</g>
<g style="mix-blend-mode:luminosity">
<path d="M36.6552 33L31 27.6941V27.3059L36.6552 22L36.7931 22.1294L43.5517 25.7529C45.4828 26.7882 45.4828 28.4706 43.5517 29.5059L36.6552 33Z" fill="url(#paint1_linear)"/>
</g>
<g style="mix-blend-mode:luminosity" opacity="0.12">
<path d="M14.5391 43.8629C14.1348 43.4516 14 42.7661 14 41.9435V42.0806C14 42.9032 14.2696 43.5887 14.6739 44V43.8629H14.5391ZM43.6522 28.7823L36.913 32.621L37.0478 32.7581L43.6522 28.9194C44.5957 28.371 45 27.6855 45 27C45 27.6855 44.4609 28.2339 43.6522 28.7823Z" fill="black"/>
</g>
<g style="mix-blend-mode:luminosity">
<path d="M37 32.8657L31.2156 27L14 44.4574C14.6886 45.1557 15.6527 45.1557 16.8922 44.597L37 32.8657Z" fill="url(#paint2_linear)"/>
</g>
<g style="mix-blend-mode:luminosity">
<path d="M37 21.107L16.8922 9.46124C15.6527 8.75968 14.6886 8.89999 14 9.60154L31.2156 27L37 21.107Z" fill="url(#paint3_linear)"/>
</g>
<g style="mix-blend-mode:luminosity" opacity="0.2">
<path d="M37 32L16.9096 44.1988C15.8012 44.9427 14.8313 44.7939 14.1386 44.1988L14 44.3476L14.1386 44.4964C14.8313 45.0914 15.8012 45.2402 16.9096 44.4964L37 32Z" fill="black"/>
</g>
<g style="mix-blend-mode:luminosity" opacity="0.25">
<path d="M17.3696 9.63415L43.6522 25.1794C44.4609 25.7396 45 26.2998 45 27C45 26.2998 44.5957 25.5995 43.6522 25.0393L17.3696 9.4941C15.4826 8.37372 14 9.214 14 11.4548V11.5948C14 9.4941 15.4826 8.51377 17.3696 9.63415Z" fill="white"/>
</g>
<defs>
<linearGradient id="paint0_linear" x1="29.4308" y1="11.6456" x2="6.62349" y2="33.5744" gradientUnits="userSpaceOnUse">
<stop stop-color="#00A0FF"/>
<stop offset="0.007" stop-color="#00A1FF"/>
<stop offset="0.26" stop-color="#00BEFF"/>
<stop offset="0.512" stop-color="#00D2FF"/>
<stop offset="0.76" stop-color="#00DFFF"/>
<stop offset="1" stop-color="#00E3FF"/>
</linearGradient>
<linearGradient id="paint1_linear" x1="46.0814" y1="27.4366" x2="12.7062" y2="27.4366" gradientUnits="userSpaceOnUse">
<stop stop-color="#FFE000"/>
<stop offset="0.409" stop-color="#FFBD00"/>
<stop offset="0.775" stop-color="#FFA500"/>
<stop offset="1" stop-color="#FF9C00"/>
</linearGradient>
<linearGradient id="paint2_linear" x1="33.8695" y1="30.2066" x2="2.08904" y2="61.5469" gradientUnits="userSpaceOnUse">
<stop stop-color="#FF3A44"/>
<stop offset="1" stop-color="#C31162"/>
</linearGradient>
<linearGradient id="paint3_linear" x1="9.72641" y1="-0.815078" x2="23.9837" y2="13.1794" gradientUnits="userSpaceOnUse">
<stop stop-color="#32A071"/>
<stop offset="0.069" stop-color="#2DA771"/>
<stop offset="0.476" stop-color="#15CF74"/>
<stop offset="0.801" stop-color="#06E775"/>
<stop offset="1" stop-color="#00F076"/>
</linearGradient>
</defs>
</svg>
